<?xml version="1.0" standalone="no"?>
<!DOCTYPE svg PUBLIC "-//W3C//DTD SVG 20010904//EN"
 "http://www.w3.org/TR/2001/REC-SVG-20010904/DTD/svg10.dtd">
<svg version="1.0" xmlns="http://www.w3.org/2000/svg"
 width="300.000000pt" height="184.000000pt" viewBox="0 0 300.000000 184.000000"
 preserveAspectRatio="xMidYMid meet">
<metadata>
Created by potrace 1.10, written by Peter Selinger 2001-2011
</metadata>
<g transform="translate(0.000000,184.000000) scale(0.100000,-0.100000)"
fill="#000000" stroke="none">
<path d="M2 1765 c1 -37 4 -43 15 -33 7 6 16 8 20 5 8 -9 -17 -38 -28 -31 -5
3 -9 -7 -9 -21 0 -14 4 -24 10 -20 5 3 36 -16 69 -43 33 -26 80 -58 105 -71
26 -12 46 -24 46 -27 0 -4 -105 -150 -121 -168 -4 -5 -28 -1 -55 8 -26 9 -48
16 -49 16 -1 0 -2 -13 -3 -30 -1 -33 -4 -32 128 -59 215 -44 515 -51 818 -20
99 10 122 15 123 28 0 11 2 12 6 4 5 -14 63 -18 63 -5 0 4 16 6 36 4 21 -3 34
-1 31 5 -3 5 9 7 29 5 21 -3 34 0 34 7 0 7 5 9 11 5 6 -3 15 0 20 7 7 11 9 11
9 1 0 -7 5 -10 10 -7 6 3 10 11 10 17 0 10 -21 8 -102 -8 -25 -5 -27 -2 -37
46 -6 28 -11 52 -11 54 0 2 41 9 90 15 71 10 90 16 91 29 1 20 37 -85 38 -110
1 -12 -4 -15 -16 -11 -11 5 -14 3 -8 -6 6 -10 2 -11 -15 -6 -14 5 -20 3 -16
-3 4 -6 -33 -29 -86 -53 -163 -75 -569 -284 -687 -353 -245 -144 -371 -251
-401 -340 -11 -33 -2 -77 18 -90 13 -8 11 26 -2 44 -10 13 -9 13 6 1 12 -8 16
-22 14 -38 -4 -18 7 -37 42 -76 26 -29 98 -112 161 -185 103 -120 116 -131
140 -126 14 4 112 33 216 65 350 106 459 137 620 178 185 46 419 91 476 91 28
0 39 4 39 15 0 8 -4 15 -10 15 -5 0 -10 -6 -10 -12 0 -10 -3 -9 -9 1 -13 20
-131 5 -131 -17 -1 -15 -50 92 -50 108 0 3 16 4 36 2 20 -3 34 -1 31 4 -3 5
15 7 39 5 35 -2 44 0 44 13 0 20 -33 20 -159 -2 -58 -11 -96 -22 -99 -30 -3
-11 6 -12 42 -7 l46 7 19 -43 18 -44 -51 -12 c-28 -7 -69 -15 -92 -18 -40 -7
-40 -6 -57 35 -14 38 -15 45 -2 63 8 12 15 16 15 9 0 -6 11 -12 25 -12 16 0
25 6 25 15 0 8 -4 15 -10 15 -5 0 -10 -4 -10 -10 0 -5 -5 -10 -12 -10 -30 0
25 32 146 85 466 205 895 438 1016 551 70 65 78 90 46 150 -30 58 -66 113 -66
100 0 -5 -7 -3 -16 5 -13 10 -17 10 -26 -2 -8 -12 -9 -12 -5 1 2 8 -2 20 -8
25 -7 6 -30 45 -53 87 -37 71 -39 78 -22 83 19 6 19 7 -1 44 -37 71 -66 68
-564 -49 -340 -80 -551 -123 -733 -147 -97 -13 -131 -21 -127 -30 2 -7 0 -13
-5 -13 -6 0 -10 3 -10 8 0 4 -109 7 -242 7 -267 0 -322 7 -477 64 -139 51
-293 159 -362 254 l-27 38 0 -46z m2514 -97 c8 2 14 -1 14 -6 0 -15 -40 -8
-50 8 -16 24 -11 37 6 15 8 -11 22 -19 30 -17z m-126 -17 c13 -26 13 -31 -4
-31 -13 0 -26 20 -26 41 0 16 19 10 30 -10z m-52 -16 c14 -31 -3 -45 -23 -19
-16 22 -18 28 -8 37 11 12 20 8 31 -18z m-66 -20 c16 -35 1 -45 -22 -15 -24
30 -25 40 -5 40 9 0 21 -11 27 -25z m314 -151 c-6 -7 -15 -10 -20 -7 -4 3 -2
9 5 14 9 6 2 9 -21 9 -33 0 -38 5 -68 56 -18 31 -32 60 -32 65 0 4 15 12 33
17 32 8 32 8 73 -67 30 -56 38 -78 30 -87z m-378 131 c10 -21 9 -27 -4 -32
-15 -6 -43 22 -44 45 0 22 37 12 48 -13z m-232 1 c12 -12 3 -18 -66 -41 -89
-30 -93 -30 -98 -17 -2 6 31 18 73 28 53 13 74 22 71 31 -7 17 2 17 20 -1z
m149 -22 c14 -22 15 -28 4 -35 -22 -14 -29 -11 -41 17 -10 21 -9 27 3 35 8 5
15 9 15 9 1 0 9 -12 19 -26z m324 -31 c17 -31 30 -57 28 -58 -1 0 -28 1 -59 3
-53 4 -59 6 -78 39 -11 20 -19 37 -17 39 4 4 79 32 89 33 3 1 20 -25 37 -56z
m-409 -3 c21 -40 -18 -56 -44 -18 -8 12 -13 25 -10 30 10 15 43 8 54 -12z
m280 -20 l20 -40 -52 -1 c-93 -2 -163 -13 -160 -27 1 -6 -1 -12 -6 -12 -9 0
-35 40 -30 46 5 4 190 73 200 73 4 1 17 -17 28 -39z m-520 8 c0 -7 -35 -26
-78 -42 -42 -16 -82 -31 -88 -33 -7 -2 -16 8 -21 24 l-10 28 76 16 c95 21 121
22 121 7z m145 -24 c19 -29 19 -29 -12 -38 -18 -6 -25 -1 -37 23 -16 31 -15
32 25 40 4 0 14 -11 24 -25z m-1587 -26 c94 -30 102 -35 97 -55 -9 -39 -67
-153 -77 -153 -6 0 -5 7 2 15 11 13 8 15 -16 15 -41 0 -207 31 -217 40 -8 7
90 168 103 170 3 0 51 -14 108 -32z m1185 16 c43 7 45 6 52 -21 3 -15 5 -30 4
-33 -2 -3 -42 -21 -89 -41 l-86 -35 -16 53 c-15 50 -14 53 3 53 10 0 17 6 15
13 -1 6 -1 9 1 5 3 -5 18 -8 34 -8 22 0 27 4 23 18 -5 13 -4 14 4 3 7 -10 22
-12 55 -7z m292 -33 c14 -28 14 -30 -7 -37 -16 -5 -27 0 -41 17 -18 22 -18 24
-1 36 26 19 32 17 49 -16z m245 9 c0 -5 -7 -10 -16 -10 -10 0 -14 -6 -10 -15
7 -18 -10 -20 -18 -2 -5 10 -7 10 -12 0 -8 -17 -24 -17 -24 0 0 7 12 18 28 24
36 14 52 15 52 3z m270 -10 c0 -6 31 -10 74 -10 l75 0 55 -99 c31 -54 56 -103
56 -108 0 -18 -401 -233 -433 -233 -8 0 -19 12 -26 26 -6 14 -56 104 -111 200
-90 156 -124 232 -88 196 15 -15 32 -16 23 -2 -3 6 -2 10 4 10 5 0 11 -5 13
-11 3 -8 34 -8 113 0 59 6 137 11 173 11 53 0 63 3 58 15 -3 8 -1 15 4 15 6 0
10 -4 10 -10z m-625 -40 c14 -28 14 -30 -7 -41 -18 -10 -24 -8 -39 12 -10 13
-19 27 -19 30 0 5 32 24 47 28 1 1 9 -12 18 -29z m-1116 0 c46 -5 86 -12 88
-14 7 -7 -20 -146 -29 -146 -5 0 -7 4 -4 9 3 5 -48 12 -114 16 -137 8 -129 -1
-84 102 19 42 28 53 42 49 9 -3 55 -10 101 -16z m2041 -10 c49 -25 73 -54 65
-79 -6 -20 -72 -78 -79 -70 -4 6 -90 162 -95 173 -5 13 67 -3 109 -24z m-1482
-27 c6 -26 9 -49 7 -52 -2 -2 -42 -8 -89 -14 -47 -5 -83 -14 -80 -18 3 -5 -2
-6 -10 -3 -9 3 -16 1 -16 -5 0 -6 -4 -11 -8 -11 -5 0 -10 31 -11 69 l-2 70 58
4 c32 2 77 4 100 5 l41 2 10 -47z m-228 -27 l0 -53 -46 -7 c-26 -3 -73 -6
-105 -6 -45 0 -60 -4 -68 -17 -16 -30 -19 -11 -8 65 l10 72 108 0 109 0 0 -54z
m660 33 c0 -6 7 -18 16 -26 15 -15 14 -17 -8 -29 -32 -18 -33 -18 -47 12 -10
22 -9 28 6 40 22 16 33 18 33 3z m392 -200 c64 -112 118 -208 118 -212 0 -4
-37 -25 -82 -46 -46 -21 -123 -58 -173 -81 -285 -134 -441 -201 -452 -193 -15
10 -275 414 -270 419 19 19 716 324 731 320 6 -1 63 -94 128 -207z m-497 131
c15 -28 14 -31 -2 -37 -10 -3 -21 -8 -25 -10 -4 -2 -15 8 -25 23 -16 25 -16
27 2 40 27 20 33 18 50 -16z m1252 -30 c-1 -11 -5 -20 -9 -20 -4 0 -8 -8 -8
-17 -1 -14 -4 -13 -14 6 -11 20 -11 27 2 42 18 21 31 16 29 -11z m-1357 -46
c0 -23 -44 -25 -62 -3 -23 28 -23 34 5 46 18 9 25 7 39 -11 10 -11 18 -26 18
-32z m1295 -45 c-5 -6 -13 -3 -22 10 -8 12 -11 26 -8 32 5 6 13 3 22 -10 8
-12 11 -26 8 -32z m-1429 24 c19 -26 17 -38 -9 -50 -21 -10 -26 -8 -41 17 -15
27 -15 29 1 39 25 15 34 13 49 -6z m1384 -23 c16 -29 1 -46 -17 -21 -8 12 -11
26 -8 31 9 14 13 13 25 -10z m-1498 -40 c16 -28 16 -30 -2 -40 -28 -15 -35
-13 -50 15 -12 22 -11 27 6 40 26 19 27 19 46 -15z m1456 10 c12 -20 9 -40 -7
-40 -11 0 -31 47 -24 54 11 10 18 7 31 -14z m-44 -61 c-9 -16 -32 -10 -39 11
-11 33 6 46 27 21 10 -13 15 -27 12 -32z m-1531 -8 c16 -27 16 -28 -8 -39 -22
-10 -27 -8 -42 14 -16 25 -16 27 2 40 26 19 28 18 48 -15z m1461 -3 c16 -22
13 -38 -7 -38 -16 0 -39 38 -32 50 10 16 23 12 39 -12z m-1374 -49 c0 -6 -9
-5 -20 1 -11 6 -20 21 -20 33 l1 22 19 -24 c11 -13 20 -27 20 -32z m1304 9
c14 -20 14 -23 0 -31 -20 -12 -49 15 -41 37 9 22 23 20 41 -6z m-1500 -13 c15
-23 15 -25 -3 -35 -29 -15 -36 -13 -51 16 -12 22 -12 27 0 34 24 15 37 12 54
-15z m281 -208 c72 -111 130 -208 130 -216 0 -15 -297 -150 -332 -151 -13 0
-23 -4 -23 -10 0 -5 -7 -6 -17 -3 -11 4 -14 3 -9 -5 4 -7 2 -12 -3 -12 -6 0
-11 5 -11 10 0 6 -11 10 -25 10 -25 0 -34 -14 -16 -24 5 -4 11 0 14 6 2 7 8
10 12 6 11 -10 -4 -28 -33 -39 -18 -7 -28 -6 -34 3 -13 21 -9 31 7 18 18 -15
27 -10 16 8 -6 10 -29 12 -94 6 -77 -6 -85 -9 -84 -26 1 -19 6 -19 74 -13 40
4 73 3 73 -2 0 -5 -24 -21 -54 -35 -64 -32 -40 -52 -211 176 -93 125 -123 171
-113 178 83 54 570 314 593 316 6 1 69 -90 140 -201z m1139 178 c15 -23 15
-25 -4 -35 -16 -9 -22 -6 -36 16 -15 22 -15 27 -3 35 21 13 25 11 43 -16z
m-1514 -47 c0 -4 -9 -12 -20 -18 -16 -9 -22 -6 -37 16 -16 25 -16 27 2 40 17
13 21 12 37 -8 10 -13 18 -26 18 -30z m1440 -18 c0 -3 -9 -11 -19 -17 -16 -10
-22 -8 -36 13 -16 24 -15 26 2 39 16 12 20 11 35 -8 10 -12 18 -24 18 -27z
m-1554 -11 c18 -20 18 -21 0 -35 -17 -12 -22 -12 -38 3 -21 19 -23 39 -5 46
20 9 23 8 43 -14z m1439 -15 c16 -24 16 -26 -2 -40 -25 -19 -28 -18 -42 13
-11 23 -10 29 5 40 22 16 19 17 39 -13z m-1532 -39 c17 -23 17 -25 -4 -35 -17
-10 -23 -8 -35 7 -17 23 -18 40 -1 46 19 8 21 8 40 -18z m1431 -14 c14 -27 14
-29 -9 -39 -22 -10 -26 -8 -39 17 -14 27 -14 29 7 39 12 6 23 11 24 11 1 1 9
-12 17 -28z m-1519 -37 c14 -22 15 -28 4 -35 -21 -13 -26 -11 -43 13 -11 16
-13 25 -4 35 15 19 24 16 43 -13z m1425 -36 c0 -4 -9 -12 -21 -18 -17 -9 -23
-8 -35 7 -18 24 -17 40 4 52 13 8 21 5 34 -12 10 -12 18 -25 18 -29z m-1490
-38 c0 -18 -33 -20 -46 -3 -17 23 -18 40 -1 46 12 5 47 -27 47 -43z m1366 13
c18 -25 17 -31 -8 -44 -18 -10 -24 -8 -39 12 -23 30 -23 36 -1 42 30 8 35 7
48 -10z m-1453 -37 c14 -21 14 -26 2 -36 -11 -9 -17 -6 -31 15 -15 23 -15 28
-3 36 8 5 15 9 15 9 1 0 9 -11 17 -24z m1343 -21 c19 -28 18 -30 -13 -39 -16
-5 -26 -1 -37 16 -23 33 -20 39 26 47 4 0 15 -10 24 -24z m-1398 -26 c19 -30
-2 -51 -23 -23 -8 10 -15 25 -15 32 0 19 24 14 38 -9z m1286 -24 c16 -24 16
-26 -9 -37 -22 -10 -28 -8 -40 8 -25 33 -19 45 26 53 4 0 14 -10 23 -24z
m-1059 -156 c72 -93 131 -174 133 -179 2 -5 -36 -29 -85 -54 -48 -24 -97 -51
-107 -59 -18 -13 -22 -12 -45 17 -14 17 -55 64 -91 105 -36 41 -57 72 -47 68
10 -4 29 -7 41 -7 16 0 43 -24 90 -81 38 -44 70 -78 73 -75 3 3 -19 36 -50 73
l-56 68 102 3 102 3 27 -33 c35 -42 37 -28 2 17 -14 19 -31 32 -39 29 -7 -3
-16 0 -21 7 -5 9 -2 10 9 6 10 -3 17 -3 17 2 0 4 -55 11 -122 14 -121 6 -219
24 -240 45 -19 19 12 70 85 137 38 36 75 65 81 65 6 0 69 -77 141 -171z m-275
141 c15 -28 2 -46 -16 -23 -7 10 -14 24 -14 31 0 19 18 14 30 -8z m1219 -37
c10 -21 9 -28 -1 -34 -22 -14 -35 -10 -52 16 -16 24 -16 26 6 35 33 13 34 13
47 -17z m-1251 -4 c7 -12 11 -23 8 -26 -8 -9 -36 17 -36 33 0 20 13 17 28 -7z
m1132 -41 c12 -15 15 -27 9 -34 -12 -14 -44 -7 -61 13 -10 12 -9 18 7 29 24
18 24 18 45 -8z m-104 -55 c17 -27 17 -27 -1 -13 -16 14 -17 13 -11 -8 6 -18
4 -22 -12 -22 -16 0 -19 5 -14 22 3 14 1 19 -6 14 -6 -3 -13 -2 -17 3 -5 9 20
30 36 31 4 0 15 -12 25 -27z m221 -32 l21 -50 -72 -16 c-39 -9 -78 -18 -87
-21 -18 -5 -64 56 -51 68 7 7 152 67 163 68 3 0 14 -22 26 -49z m-356 -3 c0
-10 2 -10 6 0 4 10 10 7 21 -9 14 -20 14 -23 -3 -35 -23 -17 -45 -2 -45 32 0
24 19 35 21 12z m-61 -78 c0 -20 -36 -20 -52 0 -23 28 -23 37 0 43 16 4 52
-26 52 -43z m228 10 c21 -37 32 -71 13 -41 -8 13 -21 12 -88 -7 -77 -20 -78
-20 -97 -2 -11 11 -18 21 -15 23 11 7 145 65 154 66 6 0 20 -17 33 -39z m-334
-25 c15 -23 15 -25 -3 -34 -14 -8 -22 -6 -35 8 -19 21 -21 37 -3 44 21 9 24 8
41 -18z m166 -70 c0 -5 -4 -4 -9 4 -8 12 -21 11 -90 -8 -45 -12 -86 -19 -91
-16 -14 9 -12 -9 2 -23 8 -8 9 -12 1 -12 -6 0 -13 5 -15 11 -4 12 -98 -10 -98
-23 0 -4 6 -5 14 -2 8 3 17 0 22 -7 5 -9 2 -10 -9 -6 -10 4 -17 1 -17 -6 -1
-7 -6 -5 -14 6 -18 24 -29 21 -20 -5 6 -20 5 -21 -10 -9 -9 7 -16 9 -16 3 0
-16 -32 -24 -44 -11 -8 8 -7 10 4 7 8 -3 26 6 39 18 13 12 45 30 70 40 25 9
60 23 76 30 17 7 62 26 100 42 l70 29 17 -26 c10 -14 18 -30 18 -36z m-252 27
c13 -19 12 -22 -3 -28 -10 -4 -25 1 -38 15 -19 19 -20 23 -7 31 20 13 30 9 48
-18z m-82 -33 c15 -17 16 -22 4 -29 -16 -10 -50 14 -50 37 0 20 24 16 46 -8z
m-73 -33 c15 -22 15 -25 1 -30 -20 -8 -58 35 -41 46 18 12 24 10 40 -16z m-65
-18 c15 -15 16 -38 1 -38 -12 0 -38 29 -39 43 0 11 25 8 38 -5z m-50 -29 c7
-12 11 -23 8 -27 -9 -8 -46 29 -40 39 8 14 18 10 32 -12z m-68 -40 c10 -18 9
-19 -7 -11 -10 5 -24 7 -30 5 -7 -3 -13 0 -13 7 0 6 5 8 10 5 6 -3 10 -1 10 4
0 18 19 12 30 -10z"/>
<path d="M2577 1613 c10 -25 94 -163 99 -163 3 0 3 3 1 8 -92 162 -117 201
-100 155z"/>
<path d="M1931 621 c-46 -4 -76 -11 -79 -18 -2 -8 5 -13 16 -13 16 0 21 -9 27
-48 3 -26 9 -53 13 -59 4 -6 65 -13 142 -16 350 -16 686 -151 884 -356 47 -50
66 -64 66 -50 0 10 -5 19 -12 19 -9 0 -9 3 0 12 34 34 -15 94 -136 165 -50 29
-53 22 52 107 38 31 74 56 81 56 7 0 12 12 11 28 -1 25 -7 29 -81 50 -277 80
-714 147 -715 110 0 -7 -5 -5 -11 5 -8 14 -23 17 -97 15 -48 -1 -120 -4 -161
-7z m341 -35 c59 -4 94 -3 96 4 2 5 7 10 12 10 4 0 -6 -30 -23 -66 l-31 -65
-49 6 c-37 5 -52 4 -59 -6 -8 -11 -9 -10 -4 4 5 14 -1 17 -38 17 -26 0 -47 -5
-50 -12 -3 -7 -4 -4 -2 7 3 11 10 46 16 78 10 48 14 55 25 44 8 -9 50 -16 107
-21z m-152 2 c0 -7 -3 -30 -6 -50 l-7 -38 -93 0 c-73 0 -94 3 -94 14 0 7 -3
27 -6 44 -6 29 -4 31 27 35 82 10 179 7 179 -5z m409 -39 c94 -18 115 -19 122
-8 4 7 11 11 14 7 4 -3 0 -14 -9 -25 -8 -10 -34 -42 -57 -71 -30 -38 -46 -51
-58 -47 -9 4 -54 17 -100 31 -47 13 -86 26 -89 28 -5 6 47 106 56 106 4 0 58
-9 121 -21z m178 -23 c-15 -12 -11 -15 45 -29 35 -9 94 -27 131 -39 l68 -24
-80 -67 -81 -68 -82 39 c-46 22 -93 43 -106 46 -21 7 -19 11 39 82 33 41 66
74 72 74 7 0 4 -7 -6 -14z"/>
</g>
</svg>
